<mxfile host="Electron" modified="2025-02-27T17:16:59.284Z" agent="Mozilla/5.0 (Windows NT 10.0; Win64; x64) AppleWebKit/537.36 (KHTML, like Gecko) draw.io/21.6.8 Chrome/114.0.5735.289 Electron/25.5.0 Safari/537.36" etag="TwSx8xe_qSwEnrHfQpIn" version="21.6.8" type="device">
  <diagram name="Page-1" id="TAxFWLGyPCR2Vq5mU7e9">
    <mxGraphModel dx="1606" dy="1258" grid="0" gridSize="10" guides="1" tooltips="1" connect="1" arrows="1" fold="1" page="0" pageScale="1" pageWidth="850" pageHeight="1100" math="0" shadow="0">
      <root>
        <mxCell id="0" />
        <mxCell id="1" parent="0" />
        <mxCell id="fG23GhRMj_7_pvGDDKSj-1" value="&lt;font style=&quot;font-size: 180px;&quot;&gt;A&lt;/font&gt;" style="whiteSpace=wrap;html=1;aspect=fixed;hachureGap=4;fontFamily=Verdana;fontSize=180;strokeColor=none;fillColor=#E6FFCC;fontStyle=0;labelBorderColor=none;labelBackgroundColor=none;fontColor=#000000;" parent="1" vertex="1">
          <mxGeometry x="-200" y="-162" width="256" height="256" as="geometry" />
        </mxCell>
        <mxCell id="fG23GhRMj_7_pvGDDKSj-2" value="&lt;span style=&quot;font-size: 180px;&quot;&gt;&lt;font style=&quot;font-size: 180px;&quot;&gt;B&lt;/font&gt;&lt;/span&gt;" style="whiteSpace=wrap;html=1;aspect=fixed;hachureGap=4;fontFamily=Verdana;fontSize=180;strokeColor=none;fillColor=#B266FF;fontStyle=0;labelBorderColor=none;labelBackgroundColor=none;fontColor=#FFFFFF;" parent="1" vertex="1">
          <mxGeometry x="56" y="-162" width="256" height="256" as="geometry" />
        </mxCell>
        <mxCell id="fG23GhRMj_7_pvGDDKSj-3" value="&lt;span style=&quot;font-size: 180px;&quot;&gt;&lt;font style=&quot;font-size: 180px;&quot;&gt;C&lt;/font&gt;&lt;/span&gt;" style="whiteSpace=wrap;html=1;aspect=fixed;hachureGap=4;fontFamily=Verdana;fontSize=180;strokeColor=none;fillColor=#CC00CC;fontStyle=0;labelBorderColor=none;labelBackgroundColor=none;fontColor=#FFFFFF;" parent="1" vertex="1">
          <mxGeometry x="312" y="-162" width="256" height="256" as="geometry" />
        </mxCell>
        <mxCell id="fG23GhRMj_7_pvGDDKSj-4" value="&lt;span style=&quot;font-size: 180px;&quot;&gt;&lt;font style=&quot;font-size: 180px;&quot;&gt;D&lt;/font&gt;&lt;/span&gt;" style="whiteSpace=wrap;html=1;aspect=fixed;hachureGap=4;fontFamily=Verdana;fontSize=180;strokeColor=none;fillColor=#FF3333;fontStyle=0;labelBorderColor=none;labelBackgroundColor=none;fontColor=#FFFFFF;" parent="1" vertex="1">
          <mxGeometry x="568" y="-162" width="256" height="256" as="geometry" />
        </mxCell>
        <mxCell id="fG23GhRMj_7_pvGDDKSj-5" value="&lt;span style=&quot;font-size: 180px;&quot;&gt;&lt;font style=&quot;font-size: 180px;&quot;&gt;E&lt;/font&gt;&lt;/span&gt;" style="whiteSpace=wrap;html=1;aspect=fixed;hachureGap=4;fontFamily=Verdana;fontSize=180;strokeColor=none;fillColor=#FFFF99;fontStyle=0;labelBorderColor=none;labelBackgroundColor=none;fontColor=#000000;" parent="1" vertex="1">
          <mxGeometry x="-200" y="94" width="256" height="256" as="geometry" />
        </mxCell>
        <mxCell id="fG23GhRMj_7_pvGDDKSj-6" value="&lt;span style=&quot;font-size: 180px;&quot;&gt;&lt;font style=&quot;font-size: 180px;&quot;&gt;F&lt;/font&gt;&lt;/span&gt;" style="whiteSpace=wrap;html=1;aspect=fixed;hachureGap=4;fontFamily=Verdana;fontSize=180;strokeColor=none;fillColor=#2774C2;fontStyle=0;labelBorderColor=none;labelBackgroundColor=none;fontColor=#FFFFFF;" parent="1" vertex="1">
          <mxGeometry x="56" y="94" width="256" height="256" as="geometry" />
        </mxCell>
        <mxCell id="fG23GhRMj_7_pvGDDKSj-7" value="&lt;span style=&quot;font-size: 180px;&quot;&gt;&lt;font style=&quot;font-size: 180px;&quot;&gt;G&lt;/font&gt;&lt;/span&gt;" style="whiteSpace=wrap;html=1;aspect=fixed;hachureGap=4;fontFamily=Verdana;fontSize=180;strokeColor=none;fillColor=#00CCCC;fontStyle=0;labelBorderColor=none;labelBackgroundColor=none;fontColor=#FFFFFF;" parent="1" vertex="1">
          <mxGeometry x="312" y="94" width="256" height="256" as="geometry" />
        </mxCell>
        <mxCell id="fG23GhRMj_7_pvGDDKSj-8" value="&lt;span style=&quot;font-size: 180px;&quot;&gt;&lt;font style=&quot;font-size: 180px;&quot;&gt;H&lt;/font&gt;&lt;/span&gt;" style="whiteSpace=wrap;html=1;aspect=fixed;hachureGap=4;fontFamily=Verdana;fontSize=180;strokeColor=none;fillColor=#FF8000;fontStyle=0;labelBorderColor=none;labelBackgroundColor=none;fontColor=#FFFFFF;" parent="1" vertex="1">
          <mxGeometry x="568" y="94" width="256" height="256" as="geometry" />
        </mxCell>
        <mxCell id="1N__fM-b2qHRySUKsXRM-1" value="&lt;span style=&quot;font-size: 180px;&quot;&gt;&lt;font style=&quot;font-size: 180px;&quot;&gt;I&lt;/font&gt;&lt;/span&gt;" style="whiteSpace=wrap;html=1;aspect=fixed;hachureGap=4;fontFamily=Verdana;fontSize=180;strokeColor=none;fillColor=#CCFFE6;fontStyle=0;labelBorderColor=none;labelBackgroundColor=none;fontColor=#000000;" parent="1" vertex="1">
          <mxGeometry x="-200" y="350" width="256" height="256" as="geometry" />
        </mxCell>
        <mxCell id="1N__fM-b2qHRySUKsXRM-2" value="&lt;span style=&quot;font-size: 180px;&quot;&gt;&lt;font style=&quot;font-size: 180px;&quot;&gt;J&lt;/font&gt;&lt;/span&gt;" style="whiteSpace=wrap;html=1;aspect=fixed;hachureGap=4;fontFamily=Verdana;fontSize=180;strokeColor=none;fillColor=#7676C4;fontStyle=0;labelBorderColor=none;labelBackgroundColor=none;fontColor=#FFFFFF;" parent="1" vertex="1">
          <mxGeometry x="56" y="350" width="256" height="256" as="geometry" />
        </mxCell>
        <mxCell id="1N__fM-b2qHRySUKsXRM-3" value="&lt;span style=&quot;font-size: 180px;&quot;&gt;&lt;font style=&quot;font-size: 180px;&quot;&gt;K&lt;/font&gt;&lt;/span&gt;" style="whiteSpace=wrap;html=1;aspect=fixed;hachureGap=4;fontFamily=Verdana;fontSize=180;strokeColor=none;fillColor=#00CC00;fontStyle=0;labelBorderColor=none;labelBackgroundColor=none;fontColor=#FFFFFF;" parent="1" vertex="1">
          <mxGeometry x="312" y="350" width="256" height="256" as="geometry" />
        </mxCell>
        <mxCell id="1N__fM-b2qHRySUKsXRM-4" value="&lt;span style=&quot;font-size: 180px;&quot;&gt;&lt;font style=&quot;font-size: 180px;&quot;&gt;L&lt;/font&gt;&lt;/span&gt;" style="whiteSpace=wrap;html=1;aspect=fixed;hachureGap=4;fontFamily=Verdana;fontSize=180;strokeColor=none;fillColor=#CC0000;fontStyle=0;labelBorderColor=none;labelBackgroundColor=none;fontColor=#FFFFFF;" parent="1" vertex="1">
          <mxGeometry x="568" y="350" width="256" height="256" as="geometry" />
        </mxCell>
        <mxCell id="G_FS12MMR0blg4iKRw6g-1" value="&lt;span style=&quot;font-size: 180px;&quot;&gt;&lt;font style=&quot;font-size: 180px;&quot;&gt;M&lt;/font&gt;&lt;/span&gt;" style="whiteSpace=wrap;html=1;aspect=fixed;hachureGap=4;fontFamily=Verdana;fontSize=180;strokeColor=none;fillColor=#4D4D4D;fontStyle=0;labelBorderColor=none;labelBackgroundColor=none;fontColor=#FFFFFF;" parent="1" vertex="1">
          <mxGeometry x="-200" y="606" width="256" height="256" as="geometry" />
        </mxCell>
        <mxCell id="G_FS12MMR0blg4iKRw6g-2" value="&lt;span style=&quot;font-size: 180px;&quot;&gt;&lt;font style=&quot;font-size: 180px;&quot;&gt;N&lt;/font&gt;&lt;/span&gt;" style="whiteSpace=wrap;html=1;aspect=fixed;hachureGap=4;fontFamily=Verdana;fontSize=180;strokeColor=none;fillColor=#BD1E73;fontStyle=0;labelBorderColor=none;labelBackgroundColor=none;fontColor=#FFFFFF;" parent="1" vertex="1">
          <mxGeometry x="56" y="606" width="256" height="256" as="geometry" />
        </mxCell>
        <mxCell id="G_FS12MMR0blg4iKRw6g-3" value="&lt;span style=&quot;font-size: 180px;&quot;&gt;&lt;font style=&quot;font-size: 180px;&quot;&gt;O&lt;/font&gt;&lt;/span&gt;" style="whiteSpace=wrap;html=1;aspect=fixed;hachureGap=4;fontFamily=Verdana;fontSize=180;strokeColor=none;fillColor=#FF9999;fontStyle=0;labelBorderColor=none;labelBackgroundColor=none;fontColor=#000000;" parent="1" vertex="1">
          <mxGeometry x="312" y="606" width="256" height="256" as="geometry" />
        </mxCell>
        <mxCell id="G_FS12MMR0blg4iKRw6g-4" value="&lt;span style=&quot;font-size: 180px;&quot;&gt;&lt;font style=&quot;font-size: 180px;&quot;&gt;P&lt;/font&gt;&lt;/span&gt;" style="whiteSpace=wrap;html=1;aspect=fixed;hachureGap=4;fontFamily=Verdana;fontSize=180;strokeColor=none;fillColor=#739909;fontStyle=0;labelBorderColor=none;labelBackgroundColor=none;fontColor=#FFFFFF;" parent="1" vertex="1">
          <mxGeometry x="568" y="606" width="256" height="256" as="geometry" />
        </mxCell>
        <mxCell id="1Qv-yKKz76CM-QJ41pnP-1" value="&lt;span style=&quot;font-size: 180px;&quot;&gt;&lt;font style=&quot;font-size: 180px;&quot;&gt;R&lt;/font&gt;&lt;/span&gt;" style="whiteSpace=wrap;html=1;aspect=fixed;hachureGap=4;fontFamily=Verdana;fontSize=180;strokeColor=none;fillColor=#808080;fontStyle=0;labelBorderColor=none;labelBackgroundColor=none;fontColor=#FFFFFF;" parent="1" vertex="1">
          <mxGeometry x="-200" y="862" width="256" height="256" as="geometry" />
        </mxCell>
        <mxCell id="1Qv-yKKz76CM-QJ41pnP-2" value="&lt;span style=&quot;font-size: 180px;&quot;&gt;&lt;font style=&quot;font-size: 180px;&quot;&gt;S&lt;/font&gt;&lt;/span&gt;" style="whiteSpace=wrap;html=1;aspect=fixed;hachureGap=4;fontFamily=Verdana;fontSize=180;strokeColor=none;fillColor=#3399FF;fontStyle=0;labelBorderColor=none;labelBackgroundColor=none;fontColor=#FFFFFF;" parent="1" vertex="1">
          <mxGeometry x="56" y="862" width="256" height="256" as="geometry" />
        </mxCell>
        <mxCell id="1Qv-yKKz76CM-QJ41pnP-3" value="&lt;span style=&quot;font-size: 180px;&quot;&gt;&lt;font style=&quot;font-size: 180px;&quot;&gt;T&lt;/font&gt;&lt;/span&gt;" style="whiteSpace=wrap;html=1;aspect=fixed;hachureGap=4;fontFamily=Verdana;fontSize=180;strokeColor=none;fillColor=#00A352;fontStyle=0;labelBorderColor=none;labelBackgroundColor=none;fontColor=#FFFFFF;" parent="1" vertex="1">
          <mxGeometry x="312" y="862" width="256" height="256" as="geometry" />
        </mxCell>
        <mxCell id="1Qv-yKKz76CM-QJ41pnP-4" value="&lt;span style=&quot;font-size: 180px;&quot;&gt;&lt;font style=&quot;font-size: 180px;&quot;&gt;U&lt;/font&gt;&lt;/span&gt;" style="whiteSpace=wrap;html=1;aspect=fixed;hachureGap=4;fontFamily=Verdana;fontSize=180;strokeColor=none;fillColor=#E5CCFF;fontStyle=0;labelBorderColor=none;labelBackgroundColor=none;fontColor=#000000;" parent="1" vertex="1">
          <mxGeometry x="568" y="862" width="256" height="256" as="geometry" />
        </mxCell>
        <mxCell id="zs6c0w4i221i9xAGOM9t-1" value="&lt;span style=&quot;font-size: 180px;&quot;&gt;&lt;font style=&quot;font-size: 180px;&quot;&gt;V&lt;/font&gt;&lt;/span&gt;" style="whiteSpace=wrap;html=1;aspect=fixed;hachureGap=4;fontFamily=Verdana;fontSize=180;strokeColor=none;fillColor=#B7C440;fontStyle=0;labelBorderColor=none;labelBackgroundColor=none;fontColor=#FFFFFF;" parent="1" vertex="1">
          <mxGeometry x="-200" y="1118" width="256" height="256" as="geometry" />
        </mxCell>
        <mxCell id="zs6c0w4i221i9xAGOM9t-2" value="&lt;span style=&quot;font-size: 180px;&quot;&gt;&lt;font style=&quot;font-size: 180px;&quot;&gt;W&lt;/font&gt;&lt;/span&gt;" style="whiteSpace=wrap;html=1;aspect=fixed;hachureGap=4;fontFamily=Verdana;fontSize=180;strokeColor=none;fillColor=#009999;fontStyle=0;labelBorderColor=none;labelBackgroundColor=none;fontColor=#FFFFFF;" parent="1" vertex="1">
          <mxGeometry x="56" y="1118" width="256" height="256" as="geometry" />
        </mxCell>
        <mxCell id="zs6c0w4i221i9xAGOM9t-3" value="&lt;span style=&quot;font-size: 180px;&quot;&gt;&lt;font style=&quot;font-size: 180px;&quot;&gt;X&lt;/font&gt;&lt;/span&gt;" style="whiteSpace=wrap;html=1;aspect=fixed;hachureGap=4;fontFamily=Verdana;fontSize=180;strokeColor=none;fillColor=#FF3333;fontStyle=0;labelBorderColor=none;labelBackgroundColor=none;fontColor=#FFFFFF;" parent="1" vertex="1">
          <mxGeometry x="312" y="1118" width="256" height="256" as="geometry" />
        </mxCell>
        <mxCell id="zs6c0w4i221i9xAGOM9t-4" value="&lt;span style=&quot;font-size: 180px;&quot;&gt;&lt;font style=&quot;font-size: 180px;&quot;&gt;Y&lt;/font&gt;&lt;/span&gt;" style="whiteSpace=wrap;html=1;aspect=fixed;hachureGap=4;fontFamily=Verdana;fontSize=180;strokeColor=none;fillColor=#004C99;fontStyle=0;labelBorderColor=none;labelBackgroundColor=none;fontColor=#FFFFFF;" parent="1" vertex="1">
          <mxGeometry x="568" y="1118" width="256" height="256" as="geometry" />
        </mxCell>
        <mxCell id="zs6c0w4i221i9xAGOM9t-5" value="&lt;span style=&quot;font-size: 180px;&quot;&gt;&lt;font style=&quot;font-size: 180px;&quot;&gt;Z&lt;/font&gt;&lt;/span&gt;" style="whiteSpace=wrap;html=1;aspect=fixed;hachureGap=4;fontFamily=Verdana;fontSize=180;strokeColor=none;fillColor=#1A1A1A;fontStyle=0;labelBorderColor=none;labelBackgroundColor=none;fontColor=#FFFFFF;" parent="1" vertex="1">
          <mxGeometry x="-200" y="1374" width="256" height="256" as="geometry" />
        </mxCell>
        <mxCell id="zs6c0w4i221i9xAGOM9t-6" value="" style="whiteSpace=wrap;html=1;aspect=fixed;hachureGap=4;fontFamily=Verdana;fontSize=180;strokeColor=none;fillColor=#F0F0F0;fontStyle=0;labelBorderColor=none;labelBackgroundColor=none;fontColor=#FFFFFF;" parent="1" vertex="1">
          <mxGeometry x="56" y="1374" width="256" height="256" as="geometry" />
        </mxCell>
        <mxCell id="zs6c0w4i221i9xAGOM9t-7" value="&lt;span style=&quot;font-size: 180px;&quot;&gt;&lt;font color=&quot;#000000&quot; style=&quot;font-size: 180px;&quot;&gt;Q&lt;/font&gt;&lt;/span&gt;" style="whiteSpace=wrap;html=1;aspect=fixed;hachureGap=4;fontFamily=Verdana;fontSize=180;strokeColor=none;fillColor=#E6E6E6;fontStyle=0;labelBorderColor=none;labelBackgroundColor=none;fontColor=#FFFFFF;" parent="1" vertex="1">
          <mxGeometry x="312" y="1374" width="256" height="256" as="geometry" />
        </mxCell>
      </root>
    </mxGraphModel>
  </diagram>
</mxfile>
